<mxfile host="app.diagrams.net" modified="2023-12-13T07:35:17.239Z" agent="Mozilla/5.0 (Windows NT 10.0; Win64; x64) AppleWebKit/537.36 (KHTML, like Gecko) Chrome/114.0.0.0 Safari/537.36" version="22.1.8" etag="Xz27xOhUq5my11oBTs5J" type="github">
  <diagram name="第 1 页" id="S4i75vFI-tYx0Sy6fPld">
    <mxGraphModel>
      <root>
        <mxCell id="0" />
        <mxCell id="1" parent="0" />
      </root>
    </mxGraphModel>
  </diagram>
</mxfile>
